<svg xmlns="http://www.w3.org/2000/svg" viewBox="0 0 128 128">
  <path fill="#bfe8c8" d="M35 116c-9-5-8-18 2-31l28-39 16 11-27 42c-6 10-13 20-19 17z"/>
  <path fill="#d9f3dd" d="M42 103c-6-4-4-12 3-22l22-31 9 6-24 36c-4 7-7 13-10 11z" opacity=".85"/>
  <path fill="#57b85a" d="M67 53 31 19c-4-4-1-11 5-10l43 8c5 1 8 6 6 11L75 53z"/>
  <path fill="#66c466" d="M74 54 96 14c3-6 12-4 12 3l2 48c0 6-6 10-11 7z"/>
  <path fill="#4fb35a" d="M79 58 119 43c6-2 11 5 7 10L96 91c-4 5-12 3-13-3z"/>
  <path fill="#3fa24f" d="M67 53 45 16l12 3 20 37zm12 2 23-37 3 14-20 31z" opacity=".35"/>
</svg>